<?xml version="1.0" ?><!-- Uploaded to: SVG Repo, www.svgrepo.com, Generator: SVG Repo Mixer Tools -->
<svg width="800px" height="800px" viewBox="0 0 96 96" data-name="Your Icons" id="Your_Icons" xmlns="http://www.w3.org/2000/svg"><defs><style>.cls-1{fill:#231f20;}</style></defs><title/><path class="cls-1" d="M72.19,18.15H53.31V16.83a2.86,2.86,0,1,0-5.71,0v1.32H28.72a.5.5,0,0,0-.5.5V34a11.2,11.2,0,0,0-6.86-3.38,10.32,10.32,0,0,0-5.89,1.46,12.25,12.25,0,0,0-4.66,4.68,11.39,11.39,0,0,0,2.08,13.32c5.77,6,14,12.73,15.33,13.84V78.53a.5.5,0,0,0,.5.5H72.19a.5.5,0,0,0,.5-.5V18.65A.5.5,0,0,0,72.19,18.15ZM48.6,21.74V16.83A1.86,1.86,0,0,1,50.46,15a1.91,1.91,0,0,1,1.31.54,1.87,1.87,0,0,1,.54,1.32v4.91h5v4H43.59v-4ZM28.72,63A200.14,200.14,0,0,1,13.61,49.37a10.36,10.36,0,0,1-1.92-12.14A11.12,11.12,0,0,1,16,32.93a9.61,9.61,0,0,1,4.74-1.34l.57,0a10.6,10.6,0,0,1,7,3.93l0,0,.07.08.31.37.38-.45a10.64,10.64,0,0,1,7.06-4,9.35,9.35,0,0,1,5.31,1.32,11.12,11.12,0,0,1,4.28,4.3,10.37,10.37,0,0,1-1.91,12.14c-1.05,1.08-2.17,2.19-3.33,3.29l-1,1c-2,1.85-4,3.62-5.71,5.13l-1,.86a.23.23,0,0,0,0,0l-1.3,1.1-.62.52-.87.73-.3.25c-.19.17-.37.31-.52.43Zm43,15H29.22V63.91l.55-.45.25-.21c.67-.56,1.65-1.37,2.81-2.37.18-.14.35-.29.53-.45l1.12-1,2.43-2.14c.83-.74,1.68-1.51,2.54-2.31l2.64-2.49,1.2-1.17,1.27-1.29a11.37,11.37,0,0,0,2.07-13.32A12.25,12.25,0,0,0,42,32.07a9.67,9.67,0,0,0-1.29-.64,10.48,10.48,0,0,0-2-.63,9.37,9.37,0,0,0-2.63-.19c-.22,0-.44,0-.67.08l-.31,0-.37.08-.44.11h0l-.44.14-.38.13a11.22,11.22,0,0,0-1.84.91q-.42.26-.81.54A13.13,13.13,0,0,0,29.22,34V19.15H47.6v1.59h-5v6H58.32v-6h-5V19.15H71.69Z"/><path class="cls-1" d="M51.17,35.83a.5.5,0,0,0,.5.5H68.2a.51.51,0,0,0,.5-.5.5.5,0,0,0-.5-.5H51.67A.5.5,0,0,0,51.17,35.83Z"/><path class="cls-1" d="M68.2,41.1H51.67a.5.5,0,0,0-.5.5.5.5,0,0,0,.5.5H68.2a.5.5,0,0,0,.5-.5A.51.51,0,0,0,68.2,41.1Z"/><path class="cls-1" d="M68.2,46.88h-19a.5.5,0,0,0-.5.5.5.5,0,0,0,.5.5h19a.51.51,0,0,0,.5-.5A.5.5,0,0,0,68.2,46.88Z"/><path class="cls-1" d="M68,52.65H45.13a.5.5,0,0,0-.5.5.5.5,0,0,0,.5.5H68a.5.5,0,0,0,.5-.5A.51.51,0,0,0,68,52.65Z"/><path class="cls-1" d="M68,58.43H40.26a.5.5,0,0,0-.5.5.51.51,0,0,0,.5.5H68a.51.51,0,0,0,.5-.5A.5.5,0,0,0,68,58.43Z"/><path class="cls-1" d="M68,64.2H36.62a.5.5,0,0,0-.5.5.5.5,0,0,0,.5.5H68a.5.5,0,0,0,.5-.5A.51.51,0,0,0,68,64.2Z"/><path class="cls-1" d="M68,70H33a.5.5,0,0,0-.5.5.5.5,0,0,0,.5.5H68a.51.51,0,0,0,.5-.5A.5.5,0,0,0,68,70Z"/></svg>