<?xml version="1.0" encoding="iso-8859-1"?>
<!-- Uploaded to: SVG Repo, www.svgrepo.com, Generator: SVG Repo Mixer Tools -->
<!DOCTYPE svg PUBLIC "-//W3C//DTD SVG 1.1//EN" "http://www.w3.org/Graphics/SVG/1.1/DTD/svg11.dtd">
<svg fill="#000000" version="1.1" id="Capa_1" xmlns="http://www.w3.org/2000/svg" xmlns:xlink="http://www.w3.org/1999/xlink" 
	 width="800px" height="800px" viewBox="0 0 405.278 405.278"
	 xml:space="preserve">
<g>
	<g>
		<g>
			<g>
				<path d="M93.185,107.161H60.413c-5.798,0-10.518-4.716-10.518-10.514V67.554c0-2.504,2.03-4.534,4.536-4.534
					c2.506,0,4.534,2.03,4.534,4.534v29.093c0,0.783,0.663,1.446,1.448,1.446h32.772c2.504,0,4.534,2.03,4.534,4.534
					S95.689,107.161,93.185,107.161z"/>
			</g>
			<g>
				<path d="M59.234,156.96C26.571,156.96,0,130.389,0,97.729c0-32.662,26.571-59.231,59.234-59.231c2.506,0,4.534,2.03,4.534,4.534
					s-2.028,4.534-4.534,4.534C31.574,47.566,9.07,70.07,9.07,97.729c0,27.659,22.504,50.163,50.165,50.163
					c27.657,0,50.162-22.504,50.162-50.163c0-2.504,2.028-4.534,4.534-4.534c2.506,0,4.536,2.03,4.536,4.534
					C118.464,130.389,91.893,156.96,59.234,156.96z"/>
			</g>
		</g>
		<g>
			<path d="M385.168,337.906h-16.947c-2.505,0-4.535-2.03-4.535-4.534c0-2.506,2.03-4.534,4.535-4.534h16.947
				c6.089,0,11.043-4.953,11.043-11.042v-52.959c0-7.799-3.235-20.128-7.062-26.921l-40.003-70.987
				c-3.381-6.001-12.385-11.263-19.269-11.263h-25.704c-6.087,0-11.042,4.954-11.042,11.042v66.976
				c0,6.088,4.955,11.042,11.042,11.042h54.517c2.506,0,4.536,2.03,4.536,4.534c0,2.506-2.03,4.534-4.536,4.534h-54.517
				c-11.092,0-20.11-9.021-20.11-20.11v-66.976c0-11.09,9.019-20.11,20.11-20.11h25.702c10.219,0,22.152,6.975,27.171,15.88
				l40,70.985c4.618,8.19,8.232,21.971,8.232,31.373v52.959C405.278,328.886,396.258,337.906,385.168,337.906z"/>
		</g>
		<g>
			<path d="M243.683,337.906h-54.538c-2.505,0-4.534-2.03-4.534-4.534c0-2.506,2.028-4.534,4.534-4.534h54.538
				c6.344,0,11.508-5.161,11.508-11.507V159.984c0-6.237-4.169-11.507-9.102-11.507c-10.018,0-18.168-9.229-18.168-20.576v-11.346
				c0-6.346-5.162-11.507-11.507-11.507h-70.907c-2.506,0-4.536-2.03-4.536-4.534s2.03-4.534,4.536-4.534h70.908
				c11.347,0,20.577,9.229,20.577,20.576v11.346c0,6.237,4.167,11.506,9.099,11.506c10.019,0,18.171,9.23,18.171,20.577v157.347
				C264.26,328.677,255.031,337.906,243.683,337.906z"/>
		</g>
		<path d="M136.555,299.964c-6.183,0-12.224,1.703-17.466,4.926c-2.135,1.31-2.801,4.104-1.492,6.237
			c1.312,2.135,4.107,2.799,6.235,1.489c3.817-2.345,8.213-3.582,12.721-3.582c13.422,0,24.34,10.919,24.34,24.34
			c0,13.42-10.918,24.338-24.34,24.338c-13.42,0-24.338-10.918-24.338-24.338c0-2.506-2.03-4.534-4.534-4.534
			c-0.254,0-37.428,0-37.428,0c-6.346,0-11.507-5.162-11.507-11.508V181.781c0-2.504-2.03-4.534-4.536-4.534
			c-2.504,0-4.534,2.03-4.534,4.534v135.551c0,11.345,9.229,20.576,20.577,20.576h33.238c2.223,16.279,16.183,28.872,33.062,28.872
			c18.423,0,33.408-14.987,33.408-33.406C169.963,314.949,154.978,299.964,136.555,299.964z"/>
		<path d="M320.948,299.964c-6.187,0-12.228,1.703-17.472,4.926c-2.135,1.31-2.801,4.104-1.489,6.237
			c1.31,2.135,4.105,2.799,6.235,1.489c3.816-2.345,8.215-3.582,12.724-3.582c13.421,0,24.341,10.919,24.341,24.34
			c0,13.42-10.92,24.338-24.341,24.338c-13.42,0-24.338-10.918-24.338-24.338c0-2.506-2.03-4.534-4.536-4.534h-17.916
			c-2.504,0-4.533,2.03-4.533,4.534s2.029,4.534,4.533,4.534h13.729c2.223,16.279,16.183,28.872,33.062,28.872
			c18.424,0,33.408-14.987,33.408-33.406C354.356,314.949,339.371,299.964,320.948,299.964z"/>
	</g>
</g>
</svg>