<?xml version="1.0" encoding="UTF-8"?>
<!DOCTYPE svg PUBLIC "-//W3C//DTD SVG 1.1//EN" "http://www.w3.org/Graphics/SVG/1.1/DTD/svg11.dtd">
<svg xmlns="http://www.w3.org/2000/svg" version="1.1" width="300px" height="238px" style="shape-rendering:geometricPrecision; text-rendering:geometricPrecision; image-rendering:optimizeQuality; fill-rule:evenodd; clip-rule:evenodd" xmlns:xlink="http://www.w3.org/1999/xlink">
<g><path style="opacity:0.164" fill="#fcfcfc" d="M 72.5,-0.5 C 78.5,-0.5 84.5,-0.5 90.5,-0.5C 94.2017,4.03604 98.3683,8.03604 103,11.5C 105.592,9.91562 107.926,7.91562 110,5.5C 110.595,4.10112 110.428,2.76779 109.5,1.5C 110.602,0.824341 111.602,0.157674 112.5,-0.5C 117.833,-0.5 123.167,-0.5 128.5,-0.5C 128.5,9.16667 128.5,18.8333 128.5,28.5C 127.833,28.8333 127.167,29.1667 126.5,29.5C 122.224,30.9861 117.891,32.3195 113.5,33.5C 112.833,33.5 112.167,33.5 111.5,33.5C 111.666,27.8236 111.499,22.1569 111,16.5C 106.243,23.6429 99.7434,26.4763 91.5,25C 84.6667,19.5 78.5,13.3333 73,6.5C 72.5034,4.19018 72.3367,1.85684 72.5,-0.5 Z"/></g>
<g><path style="opacity:0.156" fill="#fdfdfd" d="M 289.5,-0.5 C 295.5,-0.5 301.5,-0.5 307.5,-0.5C 310.504,4.50366 314.504,8.50366 319.5,11.5C 322.78,10.2207 325.113,7.88736 326.5,4.5C 326.32,3.44606 325.987,2.44606 325.5,1.5C 326.602,0.824341 327.602,0.157674 328.5,-0.5C 334.167,-0.5 339.833,-0.5 345.5,-0.5C 345.333,51.8344 345.5,104.168 346,156.5C 350.41,153.025 354.577,149.192 358.5,145C 360.134,144.506 361.801,144.34 363.5,144.5C 363.5,144.833 363.5,145.167 363.5,145.5C 363.5,150.5 363.5,155.5 363.5,160.5C 351.681,159.485 346.514,164.818 348,176.5C 350.303,178.744 349.97,180.41 347,181.5C 346.506,179.866 346.34,178.199 346.5,176.5C 334.561,176.11 329.894,181.777 332.5,193.5C 319.013,191.487 313.513,197.153 316,210.5C 316.708,211.381 317.542,212.047 318.5,212.5C 318.75,213.922 319.583,214.922 321,215.5C 321.49,216.793 321.657,218.127 321.5,219.5C 320.448,219.649 319.448,219.483 318.5,219C 315.899,215.888 312.899,213.388 309.5,211.5C 311.311,203.922 312.644,196.255 313.5,188.5C 313.5,187.833 313.833,187.5 314.5,187.5C 318.991,183.74 323.324,179.74 327.5,175.5C 328.667,122.17 328.833,68.8365 328,15.5C 325.149,19.349 321.649,22.5156 317.5,25C 314.167,25.6667 310.833,25.6667 307.5,25C 301.377,20.0449 295.71,14.5449 290.5,8.5C 289.593,5.57884 289.26,2.57884 289.5,-0.5 Z"/></g>
<g><path style="opacity:0.152" fill="#fdfdfd" d="M 505.5,-0.5 C 511.5,-0.5 517.5,-0.5 523.5,-0.5C 527.2,3.86649 531.2,7.86649 535.5,11.5C 538.431,10.0719 540.931,8.0719 543,5.5C 543.595,4.10112 543.428,2.76779 542.5,1.5C 543.602,0.824341 544.602,0.157674 545.5,-0.5C 550.833,-0.5 556.167,-0.5 561.5,-0.5C 561.5,38.8333 561.5,78.1667 561.5,117.5C 560.833,117.5 560.167,117.5 559.5,117.5C 559.167,117.5 558.833,117.5 558.5,117.5C 557.432,116.566 556.099,116.232 554.5,116.5C 554.831,92.6608 554.498,68.9941 553.5,45.5C 553.5,44.8333 553.5,44.1667 553.5,43.5C 553.666,36.4921 553.5,29.4921 553,22.5C 551.669,53.8174 551.169,85.1507 551.5,116.5C 549.833,116.5 548.167,116.5 546.5,116.5C 545.833,116.167 545.167,115.833 544.5,115.5C 544.667,82.4983 544.5,49.4983 544,16.5C 534.998,27.9191 525.498,28.4191 515.5,18C 512.694,14.2577 509.527,10.7577 506,7.5C 505.503,4.85397 505.336,2.1873 505.5,-0.5 Z"/></g>
<g><path style="opacity:0.2" fill="#959595" d="M 90.5,-0.5 C 91.5,-0.5 92.5,-0.5 93.5,-0.5C 96.4625,2.96414 99.6291,6.29747 103,9.5C 104.833,7.66667 106.667,5.83333 108.5,4C 106.326,3.81905 104.493,4.65239 103,6.5C 100.628,4.29681 98.4611,1.96348 96.5,-0.5C 97.5,-0.5 98.5,-0.5 99.5,-0.5C 101.962,4.44689 104.629,4.44689 107.5,-0.5C 109.167,-0.5 110.833,-0.5 112.5,-0.5C 111.602,0.157674 110.602,0.824341 109.5,1.5C 110.428,2.76779 110.595,4.10112 110,5.5C 107.926,7.91562 105.592,9.91562 103,11.5C 98.3683,8.03604 94.2017,4.03604 90.5,-0.5 Z"/></g>
<g><path style="opacity:0.2" fill="#efefef" d="M 99.5,-0.5 C 102.167,-0.5 104.833,-0.5 107.5,-0.5C 104.629,4.44689 101.962,4.44689 99.5,-0.5 Z"/></g>
<g><path style="opacity:0.2" fill="#e1e1e1" d="M 93.5,-0.5 C 94.5,-0.5 95.5,-0.5 96.5,-0.5C 98.4611,1.96348 100.628,4.29681 103,6.5C 104.493,4.65239 106.326,3.81905 108.5,4C 106.667,5.83333 104.833,7.66667 103,9.5C 99.6291,6.29747 96.4625,2.96414 93.5,-0.5 Z"/></g>
<g><path style="opacity:0.2" fill="#989898" d="M 307.5,-0.5 C 308.5,-0.5 309.5,-0.5 310.5,-0.5C 310.369,0.238911 310.536,0.905578 311,1.5C 313.417,4.32779 316.25,6.66112 319.5,8.5C 321.389,7.39602 323.055,6.06269 324.5,4.5C 324,4.16667 323.5,3.83333 323,3.5C 321.832,4.50886 320.665,5.50886 319.5,6.5C 316.94,4.38795 314.606,2.05461 312.5,-0.5C 313.5,-0.5 314.5,-0.5 315.5,-0.5C 318.115,4.79918 320.782,4.79918 323.5,-0.5C 325.167,-0.5 326.833,-0.5 328.5,-0.5C 327.602,0.157674 326.602,0.824341 325.5,1.5C 325.987,2.44606 326.32,3.44606 326.5,4.5C 325.113,7.88736 322.78,10.2207 319.5,11.5C 314.504,8.50366 310.504,4.50366 307.5,-0.5 Z"/></g>
<g><path style="opacity:0.2" fill="#eeeeee" d="M 315.5,-0.5 C 318.167,-0.5 320.833,-0.5 323.5,-0.5C 320.782,4.79918 318.115,4.79918 315.5,-0.5 Z"/></g>
<g><path style="opacity:0.2" fill="#e2e2e2" d="M 310.5,-0.5 C 311.167,-0.5 311.833,-0.5 312.5,-0.5C 314.606,2.05461 316.94,4.38795 319.5,6.5C 320.665,5.50886 321.832,4.50886 323,3.5C 323.5,3.83333 324,4.16667 324.5,4.5C 323.055,6.06269 321.389,7.39602 319.5,8.5C 316.25,6.66112 313.417,4.32779 311,1.5C 310.536,0.905578 310.369,0.238911 310.5,-0.5 Z"/></g>
<g><path style="opacity:0.2" fill="#929292" d="M 523.5,-0.5 C 524.5,-0.5 525.5,-0.5 526.5,-0.5C 529.017,3.14691 532.017,6.48024 535.5,9.5C 538.56,7.98118 540.06,5.64785 540,2.5C 538.649,4.01899 537.149,5.35232 535.5,6.5C 533.465,4.16089 531.465,1.82755 529.5,-0.5C 530.5,-0.5 531.5,-0.5 532.5,-0.5C 534.74,4.79359 537.073,4.79359 539.5,-0.5C 541.5,-0.5 543.5,-0.5 545.5,-0.5C 544.602,0.157674 543.602,0.824341 542.5,1.5C 543.428,2.76779 543.595,4.10112 543,5.5C 540.931,8.0719 538.431,10.0719 535.5,11.5C 531.2,7.86649 527.2,3.86649 523.5,-0.5 Z"/></g>
<g><path style="opacity:0.2" fill="#dfdfdf" d="M 526.5,-0.5 C 527.5,-0.5 528.5,-0.5 529.5,-0.5C 531.465,1.82755 533.465,4.16089 535.5,6.5C 537.149,5.35232 538.649,4.01899 540,2.5C 540.06,5.64785 538.56,7.98118 535.5,9.5C 532.017,6.48024 529.017,3.14691 526.5,-0.5 Z"/></g>
<g><path style="opacity:0.2" fill="#ececec" d="M 532.5,-0.5 C 534.833,-0.5 537.167,-0.5 539.5,-0.5C 537.073,4.79359 534.74,4.79359 532.5,-0.5 Z"/></g>
<g><path style="opacity:0.962" fill="#000000" d="M 314.5,187.5 C 313.833,187.5 313.5,187.833 313.5,188.5C 299.451,188.799 285.451,188.465 271.5,187.5C 271.167,187.5 270.833,187.5 270.5,187.5C 269.872,184.91 268.705,182.577 267,180.5C 265.158,182.864 263.325,185.197 261.5,187.5C 260.833,187.833 260.167,188.167 259.5,188.5C 224.151,189.16 189.151,188.493 154.5,186.5C 158.797,181.702 163.297,177.035 168,172.5C 168.837,168.705 168.504,165.039 167,161.5C 162.135,156.3 156.968,151.467 151.5,147C 148.5,146.333 145.5,146.333 142.5,147C 137.073,151.382 132.073,156.216 127.5,161.5C 126.5,117.505 126.167,73.505 126.5,29.5C 127.167,29.1667 127.833,28.8333 128.5,28.5C 189.713,13.4053 241.213,29.4053 283,76.5C 308.257,109.179 318.757,146.179 314.5,187.5 Z M 168.5,40.5 C 185.844,48.6763 199.178,61.1763 208.5,78C 184.977,83.1303 161.31,83.797 137.5,80C 134.99,79.6237 132.657,78.7904 130.5,77.5C 139.269,61.0631 151.936,48.7297 168.5,40.5 Z M 228.5,89.5 C 247.261,89.1472 264.427,94.1472 280,104.5C 281.765,123.68 277.431,141.346 267,157.5C 249.366,137.663 236.533,114.997 228.5,89.5 Z M 270.5,187.5 C 267.5,187.5 264.5,187.5 261.5,187.5C 263.325,185.197 265.158,182.864 267,180.5C 268.705,182.577 269.872,184.91 270.5,187.5 Z"/></g>
<g><path style="opacity:1" fill="#313131" d="M 126.5,29.5 C 126.167,73.505 126.5,117.505 127.5,161.5C 132.073,156.216 137.073,151.382 142.5,147C 145.5,146.333 148.5,146.333 151.5,147C 156.968,151.467 162.135,156.3 167,161.5C 168.504,165.039 168.837,168.705 168,172.5C 163.297,177.035 158.797,181.702 154.5,186.5C 153.596,187.209 153.263,188.209 153.5,189.5C 188.5,189.5 223.5,189.5 258.5,189.5C 257.833,190.833 257.167,192.167 256.5,193.5C 255.599,194.29 254.932,195.29 254.5,196.5C 252.833,198.5 251.167,200.5 249.5,202.5C 212.571,201.34 175.571,201.174 138.5,202C 136.294,204.037 134.294,206.203 132.5,208.5C 130.852,209.81 129.186,211.143 127.5,212.5C 126.5,244.493 126.167,276.493 126.5,308.5C 125.391,308.443 124.391,308.11 123.5,307.5C 123.158,306.662 122.492,306.328 121.5,306.5C 120.169,245.196 119.503,245.196 119.5,306.5C 117.007,305.226 114.341,304.56 111.5,304.5C 111.5,304.167 111.5,303.833 111.5,303.5C 112.5,303.5 113.5,303.5 114.5,303.5C 114.833,278.158 114.5,252.825 113.5,227.5C 109.503,229.805 107.17,233.139 106.5,237.5C 106.167,237.5 105.833,237.5 105.5,237.5C 104.618,233.62 103.285,229.953 101.5,226.5C 101.371,224.784 101.038,223.117 100.5,221.5C 101.376,221.369 102.043,221.702 102.5,222.5C 103.015,224.225 103.682,225.892 104.5,227.5C 106.432,225.611 108.265,223.611 110,221.5C 110.684,220.216 110.517,219.049 109.5,218C 113.756,216.581 117.589,214.415 121,211.5C 122.408,207.173 122.741,202.84 122,198.5C 134.039,201.631 139.539,196.964 138.5,184.5C 151.38,185.121 156.546,179.121 154,166.5C 147.878,159.483 141.212,158.816 134,164.5C 131.363,169.595 130.696,174.928 132,180.5C 128.63,182.674 126.797,185.674 126.5,189.5C 128.5,189.5 130.5,189.5 132.5,189.5C 132.27,192.465 130.603,193.798 127.5,193.5C 121.954,192.746 120.287,189.746 122.5,184.5C 124.49,183.127 126.657,182.127 129,181.5C 129.494,179.866 129.66,178.199 129.5,176.5C 124.26,175.538 120.093,177.205 117,181.5C 115.337,185.784 115.004,190.117 116,194.5C 106.257,191.295 100.09,194.795 97.5,205C 99.0502,209.431 101.384,213.431 104.5,217C 103.874,217.75 103.374,218.584 103,219.5C 101.028,218.695 99.5283,217.361 98.5,215.5C 97.913,216.233 97.913,217.233 98.5,218.5C 96.9373,217.055 95.604,215.389 94.5,213.5C 94.539,210.911 93.539,208.911 91.5,207.5C 87.5574,200.892 83.2241,194.559 78.5,188.5C 85.8409,188.666 93.1742,188.5 100.5,188C 104.725,183.438 109.225,179.271 114,175.5C 114.828,128.096 114.661,80.7625 113.5,33.5C 117.891,32.3195 122.224,30.9861 126.5,29.5 Z"/></g>
<g><path style="opacity:0.942" fill="#000000" d="M 111.5,33.5 C 112.167,33.5 112.833,33.5 113.5,33.5C 114.661,80.7625 114.828,128.096 114,175.5C 109.225,179.271 104.725,183.438 100.5,188C 93.1742,188.5 85.8409,188.666 78.5,188.5C 77.8333,188.167 77.1667,187.833 76.5,187.5C 74.4998,185.329 72.6665,182.996 71,180.5C 69.295,182.577 68.1283,184.91 67.5,187.5C 66.8333,187.833 66.1667,188.167 65.5,188.5C 51.4512,188.799 37.4512,188.465 23.5,187.5C 18.4446,128.456 39.778,81.6227 87.5,47C 95.4005,42.2192 103.401,37.7192 111.5,33.5 Z M 97.5,89.5 C 101.5,89.5 105.5,89.5 109.5,89.5C 101.467,114.997 88.6339,137.663 71,157.5C 60.5686,141.346 56.2352,123.68 58,104.5C 70.17,96.6139 83.3366,91.6139 97.5,89.5 Z M 76.5,187.5 C 73.5,187.5 70.5,187.5 67.5,187.5C 68.1283,184.91 69.295,182.577 71,180.5C 72.6665,182.996 74.4998,185.329 76.5,187.5 Z"/></g>
<g><path style="opacity:1" fill="#1b1b1b" d="M 119.5,32.5 C 120.833,49.6537 121.5,67.1537 121.5,85C 121.609,105.526 121.109,126.026 120,146.5C 119.5,108.501 119.333,70.5015 119.5,32.5 Z"/></g>
<g><path style="opacity:0.2" fill="#e3e3e3" d="M 335.5,124.5 C 336.328,130.319 336.828,136.319 337,142.5C 337.667,107.833 337.667,73.1667 337,38.5C 336.819,41.6946 336.319,44.6946 335.5,47.5C 335.196,37.1221 335.696,26.7888 337,16.5C 337.333,19.5 337.667,22.5 338,25.5C 338.167,46.5 338.333,67.5 338.5,88.5C 338.598,113.852 338.098,139.185 337,164.5C 335.597,151.218 335.097,137.885 335.5,124.5 Z"/></g>
<g><path style="opacity:0.2" fill="#c6c6c6" d="M 553.5,43.5 C 552.833,67.8333 552.167,92.1667 551.5,116.5C 551.169,85.1507 551.669,53.8174 553,22.5C 553.5,29.4921 553.666,36.4921 553.5,43.5 Z"/></g>
<g><path style="opacity:0.2" fill="#b7b7b7" d="M 553.5,45.5 C 554.498,68.9941 554.831,92.6608 554.5,116.5C 556.099,116.232 557.432,116.566 558.5,117.5C 556.833,117.5 555.167,117.5 553.5,117.5C 553.5,93.5 553.5,69.5 553.5,45.5 Z"/></g>
<g><path style="opacity:0.2" fill="#858585" d="M 335.5,124.5 C 335.5,98.8333 335.5,73.1667 335.5,47.5C 336.319,44.6946 336.819,41.6946 337,38.5C 337.667,73.1667 337.667,107.833 337,142.5C 336.828,136.319 336.328,130.319 335.5,124.5 Z"/></g>
<g><path style="opacity:0.916" fill="#000000" d="M 544.5,115.5 C 545.167,115.833 545.833,116.167 546.5,116.5C 546.5,125.5 546.5,134.5 546.5,143.5C 545.833,143.5 545.167,143.5 544.5,143.5C 539.405,143.874 537.739,146.374 539.5,151C 541.078,152.094 542.745,152.928 544.5,153.5C 545.167,154.5 545.833,155.5 546.5,156.5C 549.123,168.355 545.79,177.688 536.5,184.5C 535.833,184.5 535.167,184.5 534.5,184.5C 507.315,173.117 500.148,154.117 513,127.5C 521.494,118.498 531.994,114.498 544.5,115.5 Z"/></g>
<g><path style="opacity:0.906" fill="#000000" d="M 393.5,187.5 C 393.5,187.833 393.5,188.167 393.5,188.5C 385.586,189.467 377.586,189.801 369.5,189.5C 369.351,188.448 369.517,187.448 370,186.5C 376.194,181.158 381.36,175.158 385.5,168.5C 384.833,164.17 382.833,160.504 379.5,157.5C 376.015,154.516 372.682,151.349 369.5,148C 367.975,146.991 366.308,146.491 364.5,146.5C 364.5,145.833 364.167,145.5 363.5,145.5C 363.5,145.167 363.5,144.833 363.5,144.5C 363.5,135.5 363.5,126.5 363.5,117.5C 383.167,117.5 402.833,117.5 422.5,117.5C 422.59,126.246 421.923,134.913 420.5,143.5C 411.852,144.332 403.186,144.832 394.5,145C 393.536,149.066 393.203,153.233 393.5,157.5C 401.167,157.5 408.833,157.5 416.5,157.5C 417.971,165.569 417.804,173.569 416,181.5C 408.587,182.481 401.087,182.814 393.5,182.5C 393.5,184.167 393.5,185.833 393.5,187.5 Z"/></g>
<g><path style="opacity:0.906" fill="#000000" d="M 499.5,187.5 C 476.167,188.833 452.833,188.833 429.5,187.5C 433.557,164.827 437.724,142.16 442,119.5C 449.265,118.185 456.765,117.518 464.5,117.5C 471.833,117.833 479.167,118.167 486.5,118.5C 490.711,141.553 495.044,164.553 499.5,187.5 Z M 463.5,155.5 C 466.081,164.534 467.748,173.868 468.5,183.5C 465.5,183.5 462.5,183.5 459.5,183.5C 461.267,174.233 462.6,164.899 463.5,155.5 Z"/></g>
<g><path style="opacity:0.996" fill="#323232" d="M 553.5,43.5 C 553.5,44.1667 553.5,44.8333 553.5,45.5C 553.5,69.5 553.5,93.5 553.5,117.5C 555.167,117.5 556.833,117.5 558.5,117.5C 558.833,117.5 559.167,117.5 559.5,117.5C 559.5,126.833 559.5,136.167 559.5,145.5C 555.246,144.354 550.913,143.687 546.5,143.5C 546.5,134.5 546.5,125.5 546.5,116.5C 548.167,116.5 549.833,116.5 551.5,116.5C 552.167,92.1667 552.833,67.8333 553.5,43.5 Z"/></g>
<g><path style="opacity:0.818" fill="#020202" d="M 559.5,117.5 C 560.167,117.5 560.833,117.5 561.5,117.5C 564.833,117.833 568.167,118.167 571.5,118.5C 571.154,127.935 569.987,137.268 568,146.5C 565.973,146.986 563.807,146.986 561.5,146.5C 561.158,145.662 560.492,145.328 559.5,145.5C 559.5,136.167 559.5,126.833 559.5,117.5 Z"/></g>
<g><path style="opacity:0.167" fill="#fafafa" d="M 544.5,143.5 C 545.167,143.5 545.833,143.5 546.5,143.5C 550.913,143.687 555.246,144.354 559.5,145.5C 560.492,145.328 561.158,145.662 561.5,146.5C 561.335,150.182 561.501,153.848 562,157.5C 566.015,153.318 570.182,149.318 574.5,145.5C 578.57,144.082 582.57,144.249 586.5,146C 590.75,150.093 595.083,153.926 599.5,157.5C 599.5,164.167 599.5,170.833 599.5,177.5C 596.036,180.462 592.703,183.629 589.5,187C 592.817,187.498 596.15,187.665 599.5,187.5C 599.5,192.833 599.5,198.167 599.5,203.5C 590.5,203.5 581.5,203.5 572.5,203.5C 573.212,196.857 573.546,190.191 573.5,183.5C 575.5,183.5 577.5,183.5 579.5,183.5C 586.84,180.142 589.34,174.475 587,166.5C 582.506,160.545 576.673,158.878 569.5,161.5C 567.533,163.118 566.199,165.118 565.5,167.5C 559.746,162.908 553.413,159.241 546.5,156.5C 545.833,155.5 545.167,154.5 544.5,153.5C 544.5,150.167 544.5,146.833 544.5,143.5 Z"/></g>
<g><path style="opacity:0.995" fill="#313131" d="M 364.5,146.5 C 366.308,146.491 367.975,146.991 369.5,148C 372.682,151.349 376.015,154.516 379.5,157.5C 382.833,160.504 384.833,164.17 385.5,168.5C 381.36,175.158 376.194,181.158 370,186.5C 369.517,187.448 369.351,188.448 369.5,189.5C 377.586,189.801 385.586,189.467 393.5,188.5C 393.5,190.167 393.5,191.833 393.5,193.5C 393.5,194.833 393.5,196.167 393.5,197.5C 402.833,197.5 412.167,197.5 421.5,197.5C 421.5,198.833 421.5,200.167 421.5,201.5C 402.5,201.5 383.5,201.5 364.5,201.5C 364.773,193.112 364.44,184.779 363.5,176.5C 364.494,166.681 364.827,156.681 364.5,146.5 Z"/></g>
<g><path style="opacity:0.998" fill="#313131" d="M 546.5,156.5 C 553.413,159.241 559.746,162.908 565.5,167.5C 565.833,168.5 566.5,169.167 567.5,169.5C 567.5,169.833 567.5,170.167 567.5,170.5C 567.833,171.5 568.5,172.167 569.5,172.5C 569.733,174.062 570.4,175.395 571.5,176.5C 571.5,177.833 571.5,179.167 571.5,180.5C 567.339,178.201 565.172,174.534 565,169.5C 564.297,172.713 564.464,175.879 565.5,179C 564.172,181.167 562.506,183 560.5,184.5C 559.691,186.071 559.357,187.738 559.5,189.5C 561.604,189.201 563.604,189.534 565.5,190.5C 564.45,192.873 562.617,193.873 560,193.5C 554.496,192.133 553.163,188.8 556,183.5C 557.785,182.76 559.618,182.093 561.5,181.5C 562.452,179.955 562.785,178.288 562.5,176.5C 552.017,176.651 547.017,181.984 547.5,192.5C 546.5,192.5 545.5,192.5 544.5,192.5C 544.5,193.5 544.5,194.5 544.5,195.5C 551.972,197.478 554.472,202.145 552,209.5C 548.702,214.22 544.202,215.72 538.5,214C 534.101,210.688 532.267,206.188 533,200.5C 530.189,206.653 531.522,211.653 537,215.5C 537.49,216.793 537.657,218.127 537.5,219.5C 532.85,217.371 528.85,214.205 525.5,210C 523.866,209.506 522.199,209.34 520.5,209.5C 520.34,211.199 520.506,212.866 521,214.5C 523.677,217.343 526.51,220.01 529.5,222.5C 523.364,221.799 517.364,220.466 511.5,218.5C 510.516,215.572 510.183,212.572 510.5,209.5C 514.167,207.833 516.833,205.167 518.5,201.5C 515.583,201.365 512.916,202.032 510.5,203.5C 512.181,200.418 512.848,197.085 512.5,193.5C 517.4,194.975 522.4,195.975 527.5,196.5C 532.689,197.702 538.023,197.702 543.5,196.5C 543.5,195.167 543.5,193.833 543.5,192.5C 542.572,188.574 540.239,185.907 536.5,184.5C 545.79,177.688 549.123,168.355 546.5,156.5 Z"/></g>
<g><path style="opacity:0.2" fill="#9c9c9c" d="M 579.5,183.5 C 579.5,183.167 579.5,182.833 579.5,182.5C 581.319,180.631 583.152,178.631 585,176.5C 586.619,165.407 581.952,161.074 571,163.5C 568.765,164.896 567.598,166.896 567.5,169.5C 566.5,169.167 565.833,168.5 565.5,167.5C 566.199,165.118 567.533,163.118 569.5,161.5C 576.673,158.878 582.506,160.545 587,166.5C 589.34,174.475 586.84,180.142 579.5,183.5 Z"/></g>
<g><path style="opacity:0.2" fill="#f2f2f2" d="M 581.5,176.5 C 578.133,177.747 574.799,177.747 571.5,176.5C 570.4,175.395 569.733,174.062 569.5,172.5C 571.254,166.251 574.921,164.918 580.5,168.5C 581.48,171.086 581.813,173.753 581.5,176.5 Z"/></g>
<g><path style="opacity:0.2" fill="#939393" d="M 581.5,176.5 C 581.813,173.753 581.48,171.086 580.5,168.5C 574.921,164.918 571.254,166.251 569.5,172.5C 568.5,172.167 567.833,171.5 567.5,170.5C 568.473,168.75 569.807,167.25 571.5,166C 581.498,163.821 584.831,167.321 581.5,176.5 Z"/></g>
<g><path style="opacity:0.2" fill="#d7d7d7" d="M 579.5,182.5 C 577.473,182.662 575.473,182.495 573.5,182C 572.944,181.617 572.611,181.117 572.5,180.5C 574.631,179.686 576.964,179.186 579.5,179C 580.756,178.583 581.423,177.75 581.5,176.5C 584.831,167.321 581.498,163.821 571.5,166C 569.807,167.25 568.473,168.75 567.5,170.5C 567.5,170.167 567.5,169.833 567.5,169.5C 567.598,166.896 568.765,164.896 571,163.5C 581.952,161.074 586.619,165.407 585,176.5C 583.152,178.631 581.319,180.631 579.5,182.5 Z"/></g>
<g><path style="opacity:0.2" fill="#898989" d="M 571.5,176.5 C 574.799,177.747 578.133,177.747 581.5,176.5C 581.423,177.75 580.756,178.583 579.5,179C 576.964,179.186 574.631,179.686 572.5,180.5C 572.167,180.5 571.833,180.5 571.5,180.5C 571.5,179.167 571.5,177.833 571.5,176.5 Z"/></g>
<g><path style="opacity:1" fill="#232323" d="M 100.5,221.5 C 100.167,220.5 99.5,219.833 98.5,219.5C 98.5,219.167 98.5,218.833 98.5,218.5C 97.913,217.233 97.913,216.233 98.5,215.5C 99.5283,217.361 101.028,218.695 103,219.5C 103.374,218.584 103.874,217.75 104.5,217C 101.384,213.431 99.0502,209.431 97.5,205C 100.09,194.795 106.257,191.295 116,194.5C 115.004,190.117 115.337,185.784 117,181.5C 120.093,177.205 124.26,175.538 129.5,176.5C 129.66,178.199 129.494,179.866 129,181.5C 126.657,182.127 124.49,183.127 122.5,184.5C 120.287,189.746 121.954,192.746 127.5,193.5C 130.603,193.798 132.27,192.465 132.5,189.5C 130.5,189.5 128.5,189.5 126.5,189.5C 126.797,185.674 128.63,182.674 132,180.5C 130.696,174.928 131.363,169.595 134,164.5C 141.212,158.816 147.878,159.483 154,166.5C 156.546,179.121 151.38,185.121 138.5,184.5C 139.539,196.964 134.039,201.631 122,198.5C 122.741,202.84 122.408,207.173 121,211.5C 117.589,214.415 113.756,216.581 109.5,218C 110.517,219.049 110.684,220.216 110,221.5C 108.265,223.611 106.432,225.611 104.5,227.5C 103.682,225.892 103.015,224.225 102.5,222.5C 102.043,221.702 101.376,221.369 100.5,221.5 Z"/></g>
<g><path style="opacity:0.154" fill="#fdfdfd" d="M 363.5,184.5 C 363.5,190.5 363.5,196.5 363.5,202.5C 363.5,202.833 363.5,203.167 363.5,203.5C 361.143,203.337 358.81,203.503 356.5,204C 353,207.5 349.5,211 346,214.5C 345.5,255.499 345.333,296.499 345.5,337.5C 342.833,337.5 340.167,337.5 337.5,337.5C 337.5,312.167 337.5,286.833 337.5,261.5C 337.666,252.161 337.5,242.827 337,233.5C 335.627,248.127 335.127,262.793 335.5,277.5C 335.5,297.5 335.5,317.5 335.5,337.5C 333.167,337.5 330.833,337.5 328.5,337.5C 328.667,302.498 328.5,267.498 328,232.5C 324.023,237.496 319.023,240.829 313,242.5C 307.837,241.496 303.67,238.829 300.5,234.5C 302.466,228.85 304.466,223.184 306.5,217.5C 310.57,220.06 314.236,223.227 317.5,227C 321.34,226.654 324.507,224.821 327,221.5C 327.684,220.216 327.517,219.049 326.5,218C 333.557,216.606 337.557,212.273 338.5,205C 336.271,199.239 337.938,197.405 343.5,199.5C 348.988,199.906 352.655,197.573 354.5,192.5C 355.473,190.052 355.806,187.385 355.5,184.5C 358.167,184.5 360.833,184.5 363.5,184.5 Z"/></g>
<g><path style="opacity:0.162" fill="#f8f8f8" d="M 534.5,184.5 C 535.167,184.5 535.833,184.5 536.5,184.5C 540.239,185.907 542.572,188.574 543.5,192.5C 540.46,192.87 537.793,194.037 535.5,196C 532.854,196.497 530.187,196.664 527.5,196.5C 523.186,194.958 518.686,193.625 514,192.5C 513.235,192.57 512.735,192.903 512.5,193.5C 512.848,197.085 512.181,200.418 510.5,203.5C 507.833,203.5 505.167,203.5 502.5,203.5C 501.662,203.158 501.328,202.492 501.5,201.5C 500.446,196.893 499.779,192.227 499.5,187.5C 510.505,187.667 521.505,187.5 532.5,187C 533.381,186.292 534.047,185.458 534.5,184.5 Z"/></g>
<g><path style="opacity:0.995" fill="#333333" d="M 571.5,180.5 C 571.833,180.5 572.167,180.5 572.5,180.5C 572.611,181.117 572.944,181.617 573.5,182C 575.473,182.495 577.473,182.662 579.5,182.5C 579.5,182.833 579.5,183.167 579.5,183.5C 577.5,183.5 575.5,183.5 573.5,183.5C 573.546,190.191 573.212,196.857 572.5,203.5C 571.85,203.196 571.183,202.863 570.5,202.5C 566.427,206.567 562.76,210.9 559.5,215.5C 559.747,216.713 560.414,217.38 561.5,217.5C 561.5,217.833 561.5,218.167 561.5,218.5C 555.166,221.387 548.5,223.054 541.5,223.5C 543.379,222.095 543.712,220.428 542.5,218.5C 544.906,216.63 547.573,215.297 550.5,214.5C 555.56,210.036 556.56,204.869 553.5,199C 558.287,200.079 562.953,199.579 567.5,197.5C 569.124,196.131 569.624,194.464 569,192.5C 568.052,194.57 566.552,196.07 564.5,197C 556.463,199.319 551.463,196.486 549.5,188.5C 550.667,181.967 554.333,178.967 560.5,179.5C 553.693,180.808 551.193,184.808 553,191.5C 556.377,195.749 560.543,196.582 565.5,194C 566.435,191.619 566.768,189.119 566.5,186.5C 560.145,187.387 559.979,186.054 566,182.5C 567.333,183.167 568.333,184.167 569,185.5C 569.785,183.751 570.618,182.084 571.5,180.5 Z"/></g>
<g><path style="opacity:0.154" fill="#fefefe" d="M -0.5,187.5 C 7.5,187.5 15.5,187.5 23.5,187.5C 23.8333,188.167 24.1667,188.833 24.5,189.5C 24.5,190.833 24.5,192.167 24.5,193.5C 16.1667,193.5 7.83333,193.5 -0.5,193.5C -0.5,191.5 -0.5,189.5 -0.5,187.5 Z"/></g>
<g><path style="opacity:0.161" fill="#fafafa" d="M 261.5,187.5 C 264.5,187.5 267.5,187.5 270.5,187.5C 270.833,187.5 271.167,187.5 271.5,187.5C 272.167,188.5 272.833,189.5 273.5,190.5C 273.5,191.5 273.5,192.5 273.5,193.5C 267.833,193.5 262.167,193.5 256.5,193.5C 257.167,192.167 257.833,190.833 258.5,189.5C 259.167,189.5 259.5,189.167 259.5,188.5C 260.167,188.167 260.833,187.833 261.5,187.5 Z"/></g>
<g><path style="opacity:0.152" fill="#fefefe" d="M 393.5,187.5 C 405.5,187.5 417.5,187.5 429.5,187.5C 429.795,189.735 429.461,191.735 428.5,193.5C 416.833,193.5 405.167,193.5 393.5,193.5C 393.5,191.833 393.5,190.167 393.5,188.5C 393.5,188.167 393.5,187.833 393.5,187.5 Z"/></g>
<g><path style="opacity:1" fill="#1b1b1b" d="M 154.5,186.5 C 189.151,188.493 224.151,189.16 259.5,188.5C 259.5,189.167 259.167,189.5 258.5,189.5C 223.5,189.5 188.5,189.5 153.5,189.5C 153.263,188.209 153.596,187.209 154.5,186.5 Z"/></g>
<g><path style="opacity:0.997" fill="#323232" d="M 271.5,187.5 C 285.451,188.465 299.451,188.799 313.5,188.5C 312.644,196.255 311.311,203.922 309.5,211.5C 308.833,211.5 308.5,211.833 308.5,212.5C 307.691,214.028 307.024,215.694 306.5,217.5C 304.466,223.184 302.466,228.85 300.5,234.5C 300.167,234.5 299.833,234.5 299.5,234.5C 299.657,233.127 299.49,231.793 299,230.5C 294.346,227.536 291.846,223.37 291.5,218C 291.667,216.5 291.833,215 292,213.5C 295.682,209.985 299.182,206.318 302.5,202.5C 294.108,201.199 285.775,201.199 277.5,202.5C 276.542,200.698 275.875,198.698 275.5,196.5C 274.952,194.374 274.285,192.374 273.5,190.5C 272.833,189.5 272.167,188.5 271.5,187.5 Z"/></g>
<g><path style="opacity:0.553" fill="#727272" d="M 512.5,193.5 C 512.735,192.903 513.235,192.57 514,192.5C 518.686,193.625 523.186,194.958 527.5,196.5C 522.4,195.975 517.4,194.975 512.5,193.5 Z"/></g>
<g><path style="opacity:0.2" fill="#b0b0b0" d="M 24.5,189.5 C 25.4682,191.607 25.8016,193.941 25.5,196.5C 16.8333,196.5 8.16667,196.5 -0.5,196.5C -0.5,195.5 -0.5,194.5 -0.5,193.5C 7.83333,193.5 16.1667,193.5 24.5,193.5C 24.5,192.167 24.5,190.833 24.5,189.5 Z"/></g>
<g><path style="opacity:0.2" fill="#c4c4c4" d="M 273.5,190.5 C 274.285,192.374 274.952,194.374 275.5,196.5C 268.5,196.5 261.5,196.5 254.5,196.5C 254.932,195.29 255.599,194.29 256.5,193.5C 262.167,193.5 267.833,193.5 273.5,193.5C 273.5,192.5 273.5,191.5 273.5,190.5 Z"/></g>
<g><path style="opacity:0.2" fill="#bcbcbc" d="M 393.5,193.5 C 405.167,193.5 416.833,193.5 428.5,193.5C 428.806,196.385 428.473,199.052 427.5,201.5C 427.5,200.167 427.5,198.833 427.5,197.5C 425.833,197.5 424.167,197.5 422.5,197.5C 422.5,199.5 422.5,201.5 422.5,203.5C 421.662,203.158 421.328,202.492 421.5,201.5C 421.5,200.167 421.5,198.833 421.5,197.5C 412.167,197.5 402.833,197.5 393.5,197.5C 393.5,196.167 393.5,194.833 393.5,193.5 Z"/></g>
<g><path style="opacity:0.999" fill="#303030" d="M 429.5,187.5 C 452.833,188.833 476.167,188.833 499.5,187.5C 499.779,192.227 500.446,196.893 501.5,201.5C 477.498,201.333 453.498,201.5 429.5,202C 428.756,203.039 427.756,203.539 426.5,203.5C 426.833,202.833 427.167,202.167 427.5,201.5C 428.473,199.052 428.806,196.385 428.5,193.5C 429.461,191.735 429.795,189.735 429.5,187.5 Z"/></g>
<g><path style="opacity:0.227" fill="#979797" d="M 543.5,192.5 C 543.5,193.833 543.5,195.167 543.5,196.5C 538.023,197.702 532.689,197.702 527.5,196.5C 530.187,196.664 532.854,196.497 535.5,196C 537.793,194.037 540.46,192.87 543.5,192.5 Z"/></g>
<g><path style="opacity:0.145" fill="#fcfcfc" d="M -0.5,196.5 C 8.16667,196.5 16.8333,196.5 25.5,196.5C 25.8333,198.5 26.1667,200.5 26.5,202.5C 26.5,202.833 26.5,203.167 26.5,203.5C 17.5,203.5 8.5,203.5 -0.5,203.5C -0.5,201.167 -0.5,198.833 -0.5,196.5 Z"/></g>
<g><path style="opacity:0.999" fill="#303030" d="M 23.5,187.5 C 37.4512,188.465 51.4512,188.799 65.5,188.5C 63.8068,193.252 62.1401,197.919 60.5,202.5C 49.2647,201.181 37.9314,201.181 26.5,202.5C 26.1667,200.5 25.8333,198.5 25.5,196.5C 25.8016,193.941 25.4682,191.607 24.5,189.5C 24.1667,188.833 23.8333,188.167 23.5,187.5 Z"/></g>
<g><path style="opacity:0.161" fill="#f9f9f9" d="M 67.5,187.5 C 70.5,187.5 73.5,187.5 76.5,187.5C 77.1667,187.833 77.8333,188.167 78.5,188.5C 83.2241,194.559 87.5574,200.892 91.5,207.5C 90.8953,209.026 89.7286,210.026 88,210.5C 87.2195,211.944 87.3861,213.277 88.5,214.5C 92.8275,218.494 97.1608,222.494 101.5,226.5C 103.285,229.953 104.618,233.62 105.5,237.5C 101.899,242.096 97.2325,243.429 91.5,241.5C 84.4879,235.988 78.3213,229.655 73,222.5C 72.3333,219.833 72.3333,217.167 73,214.5C 76.0593,210.864 79.2259,207.364 82.5,204C 75.1742,203.5 67.8409,203.334 60.5,203.5C 60.5,203.167 60.5,202.833 60.5,202.5C 62.1401,197.919 63.8068,193.252 65.5,188.5C 66.1667,188.167 66.8333,187.833 67.5,187.5 Z"/></g>
<g><path style="opacity:0.141" fill="#fbfbfb" d="M 254.5,196.5 C 261.5,196.5 268.5,196.5 275.5,196.5C 275.875,198.698 276.542,200.698 277.5,202.5C 277.5,202.833 277.5,203.167 277.5,203.5C 268.167,203.5 258.833,203.5 249.5,203.5C 249.5,203.167 249.5,202.833 249.5,202.5C 251.167,200.5 252.833,198.5 254.5,196.5 Z"/></g>
<g><path style="opacity:0.2" fill="#959595" d="M 363.5,145.5 C 364.167,145.5 364.5,145.833 364.5,146.5C 364.827,156.681 364.494,166.681 363.5,176.5C 364.44,184.779 364.773,193.112 364.5,201.5C 364.5,202.167 364.167,202.5 363.5,202.5C 363.5,196.5 363.5,190.5 363.5,184.5C 363.5,182.833 363.5,181.167 363.5,179.5C 354.842,180.673 351.008,177.006 352,168.5C 355.357,165.005 359.19,163.672 363.5,164.5C 360.854,162.22 357.854,161.887 354.5,163.5C 347.527,170.475 348.194,176.642 356.5,182C 358.5,182.333 360.5,182.667 362.5,183C 358.008,183.225 353.675,183.058 349.5,182.5C 343.856,186.33 344.189,187.663 350.5,186.5C 350.834,194.322 347.167,197.156 339.5,195C 333.183,187.472 334.849,182.306 344.5,179.5C 340.857,178.551 337.69,179.551 335,182.5C 332.073,195.175 336.906,199.675 349.5,196C 351.936,193.293 353.436,190.127 354,186.5C 354.495,188.473 354.662,190.473 354.5,192.5C 352.655,197.573 348.988,199.906 343.5,199.5C 337.938,197.405 336.271,199.239 338.5,205C 337.557,212.273 333.557,216.606 326.5,218C 327.517,219.049 327.684,220.216 327,221.5C 324.507,224.821 321.34,226.654 317.5,227C 314.236,223.227 310.57,220.06 306.5,217.5C 307.024,215.694 307.691,214.028 308.5,212.5C 308.5,211.833 308.833,211.5 309.5,211.5C 312.899,213.388 315.899,215.888 318.5,219C 319.448,219.483 320.448,219.649 321.5,219.5C 321.657,218.127 321.49,216.793 321,215.5C 319.583,214.922 318.75,213.922 318.5,212.5C 317.542,212.047 316.708,211.381 316,210.5C 313.513,197.153 319.013,191.487 332.5,193.5C 329.894,181.777 334.561,176.11 346.5,176.5C 346.34,178.199 346.506,179.866 347,181.5C 349.97,180.41 350.303,178.744 348,176.5C 346.514,164.818 351.681,159.485 363.5,160.5C 363.5,155.5 363.5,150.5 363.5,145.5 Z"/></g>
<g><path style="opacity:0.2" fill="#dcdcdc" d="M 363.5,184.5 C 360.833,184.5 358.167,184.5 355.5,184.5C 355.806,187.385 355.473,190.052 354.5,192.5C 354.662,190.473 354.495,188.473 354,186.5C 353.436,190.127 351.936,193.293 349.5,196C 336.906,199.675 332.073,195.175 335,182.5C 337.69,179.551 340.857,178.551 344.5,179.5C 334.849,182.306 333.183,187.472 339.5,195C 347.167,197.156 350.834,194.322 350.5,186.5C 344.189,187.663 343.856,186.33 349.5,182.5C 353.675,183.058 358.008,183.225 362.5,183C 360.5,182.667 358.5,182.333 356.5,182C 348.194,176.642 347.527,170.475 354.5,163.5C 357.854,161.887 360.854,162.22 363.5,164.5C 359.19,163.672 355.357,165.005 352,168.5C 351.008,177.006 354.842,180.673 363.5,179.5C 363.5,181.167 363.5,182.833 363.5,184.5 Z"/></g>
<g><path style="opacity:0.2" fill="#ececec" d="M 340.5,182.5 C 342.199,182.34 343.866,182.506 345.5,183C 343.984,184.897 343.317,187.064 343.5,189.5C 345.167,189.5 346.833,189.5 348.5,189.5C 348.64,191.124 347.973,192.29 346.5,193C 337.412,193.426 335.412,189.926 340.5,182.5 Z"/></g>
<g><path style="opacity:0.2" fill="#f7f7f7" d="M 363.5,176.5 C 356.515,179.103 353.348,176.77 354,169.5C 356.21,166.71 359.044,165.877 362.5,167C 363.451,170.057 363.784,173.223 363.5,176.5 Z"/></g>
<g><path style="opacity:0.153" fill="#fefefe" d="M 427.5,201.5 C 427.167,202.167 426.833,202.833 426.5,203.5C 425.167,203.5 423.833,203.5 422.5,203.5C 422.5,201.5 422.5,199.5 422.5,197.5C 424.167,197.5 425.833,197.5 427.5,197.5C 427.5,198.833 427.5,200.167 427.5,201.5 Z"/></g>
<g><path style="opacity:0.926" fill="#010101" d="M 60.5,202.5 C 60.5,202.833 60.5,203.167 60.5,203.5C 57.7347,213.58 57.068,223.747 58.5,234C 74.3221,244.289 91.6554,248.955 110.5,248C 108.674,244.688 107.34,241.188 106.5,237.5C 107.17,233.139 109.503,229.805 113.5,227.5C 114.5,252.825 114.833,278.158 114.5,303.5C 113.5,303.5 112.5,303.5 111.5,303.5C 67.3072,283.641 38.9738,250.308 26.5,203.5C 26.5,203.167 26.5,202.833 26.5,202.5C 37.9314,201.181 49.2647,201.181 60.5,202.5 Z"/></g>
<g><path style="opacity:0.952" fill="#000000" d="M 249.5,202.5 C 249.5,202.833 249.5,203.167 249.5,203.5C 240.981,217.705 233.647,232.539 227.5,248C 246.624,249.011 264.124,244.178 280,233.5C 280.907,223.341 280.074,213.341 277.5,203.5C 277.5,203.167 277.5,202.833 277.5,202.5C 285.775,201.199 294.108,201.199 302.5,202.5C 299.182,206.318 295.682,209.985 292,213.5C 291.833,215 291.667,216.5 291.5,218C 291.846,223.37 294.346,227.536 299,230.5C 299.49,231.793 299.657,233.127 299.5,234.5C 278.045,276.437 244.212,302.437 198,312.5C 174.567,316.786 151.401,315.786 128.5,309.5C 127.833,309.5 127.5,309.167 127.5,308.5C 127.167,276.826 127.5,245.16 128.5,213.5C 130.611,212.395 131.945,210.729 132.5,208.5C 134.294,206.203 136.294,204.037 138.5,202C 175.571,201.174 212.571,201.34 249.5,202.5 Z M 249.5,203.5 C 258.833,203.5 268.167,203.5 277.5,203.5C 280.074,213.341 280.907,223.341 280,233.5C 264.124,244.178 246.624,249.011 227.5,248C 233.647,232.539 240.981,217.705 249.5,203.5 Z M 159.5,252.5 C 175.549,251.912 191.216,254.078 206.5,259C 206.957,259.414 207.291,259.914 207.5,260.5C 198.751,277.082 185.918,289.415 169,297.5C 152.082,289.415 139.249,277.082 130.5,260.5C 130.709,259.914 131.043,259.414 131.5,259C 140.894,256.483 150.227,254.316 159.5,252.5 Z"/></g>
<g><path style="opacity:0.928" fill="#010101" d="M 364.5,201.5 C 383.5,201.5 402.5,201.5 421.5,201.5C 421.328,202.492 421.662,203.158 422.5,203.5C 422.162,209.22 421.495,214.886 420.5,220.5C 401.512,221.5 382.512,221.833 363.5,221.5C 363.5,215.5 363.5,209.5 363.5,203.5C 363.5,203.167 363.5,202.833 363.5,202.5C 364.167,202.5 364.5,202.167 364.5,201.5 Z"/></g>
<g><path style="opacity:0.882" fill="#020202" d="M 501.5,201.5 C 501.328,202.492 501.662,203.158 502.5,203.5C 503.602,209.448 504.269,215.448 504.5,221.5C 494.833,221.5 485.167,221.5 475.5,221.5C 474.5,216.167 473.5,210.833 472.5,205.5C 466.824,205.334 461.157,205.501 455.5,206C 454.294,211.031 452.96,216.031 451.5,221C 442.173,221.5 432.839,221.666 423.5,221.5C 424.5,215.5 425.5,209.5 426.5,203.5C 427.756,203.539 428.756,203.039 429.5,202C 453.498,201.5 477.498,201.333 501.5,201.5 Z"/></g>
<g><path style="opacity:0.706" fill="#090909" d="M 510.5,209.5 C 510.5,207.5 510.5,205.5 510.5,203.5C 512.916,202.032 515.583,201.365 518.5,201.5C 516.833,205.167 514.167,207.833 510.5,209.5 Z"/></g>
<g><path style="opacity:1" fill="#1f1f1f" d="M 571.5,180.5 C 570.618,182.084 569.785,183.751 569,185.5C 568.333,184.167 567.333,183.167 566,182.5C 559.979,186.054 560.145,187.387 566.5,186.5C 566.768,189.119 566.435,191.619 565.5,194C 560.543,196.582 556.377,195.749 553,191.5C 551.193,184.808 553.693,180.808 560.5,179.5C 554.333,178.967 550.667,181.967 549.5,188.5C 551.463,196.486 556.463,199.319 564.5,197C 566.552,196.07 568.052,194.57 569,192.5C 569.624,194.464 569.124,196.131 567.5,197.5C 562.953,199.579 558.287,200.079 553.5,199C 556.56,204.869 555.56,210.036 550.5,214.5C 547.573,215.297 544.906,216.63 542.5,218.5C 543.712,220.428 543.379,222.095 541.5,223.5C 541.167,223.5 540.833,223.5 540.5,223.5C 536.901,222.656 533.234,222.323 529.5,222.5C 526.51,220.01 523.677,217.343 521,214.5C 520.506,212.866 520.34,211.199 520.5,209.5C 522.199,209.34 523.866,209.506 525.5,210C 528.85,214.205 532.85,217.371 537.5,219.5C 537.657,218.127 537.49,216.793 537,215.5C 531.522,211.653 530.189,206.653 533,200.5C 532.267,206.188 534.101,210.688 538.5,214C 544.202,215.72 548.702,214.22 552,209.5C 554.472,202.145 551.972,197.478 544.5,195.5C 544.5,194.5 544.5,193.5 544.5,192.5C 545.5,192.5 546.5,192.5 547.5,192.5C 547.017,181.984 552.017,176.651 562.5,176.5C 562.785,178.288 562.452,179.955 561.5,181.5C 559.618,182.093 557.785,182.76 556,183.5C 553.163,188.8 554.496,192.133 560,193.5C 562.617,193.873 564.45,192.873 565.5,190.5C 563.604,189.534 561.604,189.201 559.5,189.5C 559.357,187.738 559.691,186.071 560.5,184.5C 562.506,183 564.172,181.167 565.5,179C 564.464,175.879 564.297,172.713 565,169.5C 565.172,174.534 567.339,178.201 571.5,180.5 Z"/></g>
<g><path style="opacity:0.539" fill="#070707" d="M 572.5,203.5 C 570.73,209.732 567.063,214.399 561.5,217.5C 560.414,217.38 559.747,216.713 559.5,215.5C 562.76,210.9 566.427,206.567 570.5,202.5C 571.183,202.863 571.85,203.196 572.5,203.5 Z"/></g>
<g><path style="opacity:0.2" fill="#dbdbdb" d="M 318.5,212.5 C 314.639,200.213 318.972,194.713 331.5,196C 337.332,200.832 337.999,206.332 333.5,212.5C 331.636,213.993 329.47,214.66 327,214.5C 323.927,214.519 321.093,213.853 318.5,212.5 Z"/></g>
<g><path style="opacity:0.2" fill="#959595" d="M 324.5,196.5 C 332.349,196.845 335.516,200.845 334,208.5C 331.398,212.212 327.898,213.378 323.5,212C 319.98,209.794 318.48,206.627 319,202.5C 320.36,199.977 322.193,197.977 324.5,196.5 Z"/></g>
<g><path style="opacity:0.2" fill="#f4f4f4" d="M 325.5,198.5 C 330.602,199.429 332.769,202.429 332,207.5C 330.18,210.203 327.68,211.036 324.5,210C 319.244,205.866 319.577,202.033 325.5,198.5 Z"/></g>
<g><path style="opacity:0.148" fill="#fdfdfd" d="M 510.5,209.5 C 510.183,212.572 510.516,215.572 511.5,218.5C 517.364,220.466 523.364,221.799 529.5,222.5C 532.935,228.438 536.602,228.771 540.5,223.5C 540.833,223.5 541.167,223.5 541.5,223.5C 548.5,223.054 555.166,221.387 561.5,218.5C 561.5,258.167 561.5,297.833 561.5,337.5C 559.167,337.5 556.833,337.5 554.5,337.5C 554.842,306.15 554.342,274.817 553,243.5C 551.522,274.771 551.022,306.104 551.5,337.5C 549.167,337.5 546.833,337.5 544.5,337.5C 544.667,302.498 544.5,267.498 544,232.5C 540.201,237.882 535.201,241.215 529,242.5C 526.147,242.314 523.647,241.314 521.5,239.5C 516.515,234.015 511.348,228.681 506,223.5C 504.19,217.519 505.69,212.852 510.5,209.5 Z"/></g>
<g><path style="opacity:0.2" fill="#d2d2d2" d="M 94.5,213.5 C 95.604,215.389 96.9373,217.055 98.5,218.5C 98.5,218.833 98.5,219.167 98.5,219.5C 98.631,220.239 98.4643,220.906 98,221.5C 95.0494,218.428 92.2161,215.261 89.5,212C 91.4952,211.387 93.1619,211.887 94.5,213.5 Z"/></g>
<g><path style="opacity:1" fill="#191919" d="M 132.5,208.5 C 131.945,210.729 130.611,212.395 128.5,213.5C 127.5,245.16 127.167,276.826 127.5,308.5C 127.167,308.5 126.833,308.5 126.5,308.5C 126.167,276.493 126.5,244.493 127.5,212.5C 129.186,211.143 130.852,209.81 132.5,208.5 Z"/></g>
<g><path style="opacity:0.2" fill="#939393" d="M 91.5,207.5 C 93.539,208.911 94.539,210.911 94.5,213.5C 93.1619,211.887 91.4952,211.387 89.5,212C 92.2161,215.261 95.0494,218.428 98,221.5C 98.4643,220.906 98.631,220.239 98.5,219.5C 99.5,219.833 100.167,220.5 100.5,221.5C 101.038,223.117 101.371,224.784 101.5,226.5C 97.1608,222.494 92.8275,218.494 88.5,214.5C 87.3861,213.277 87.2195,211.944 88,210.5C 89.7286,210.026 90.8953,209.026 91.5,207.5 Z"/></g>
<g><path style="opacity:0.2" fill="#dfdfdf" d="M 308.5,212.5 C 311.964,215.462 315.297,218.629 318.5,222C 320.417,221.973 322.084,221.139 323.5,219.5C 324.521,220.002 324.688,220.668 324,221.5C 322.578,223.638 320.745,224.805 318.5,225C 315.333,221.833 312.167,218.667 309,215.5C 308.517,214.552 308.351,213.552 308.5,212.5 Z"/></g>
<g><path style="opacity:0.2" fill="#979797" d="M 529.5,222.5 C 533.234,222.323 536.901,222.656 540.5,223.5C 536.602,228.771 532.935,228.438 529.5,222.5 Z"/></g>
<g><path style="opacity:0.2" fill="#bababa" d="M 337.5,261.5 C 336.833,266.833 336.167,272.167 335.5,277.5C 335.127,262.793 335.627,248.127 337,233.5C 337.5,242.827 337.666,252.161 337.5,261.5 Z"/></g>
<g><path style="opacity:0.996" fill="#171717" d="M 121.5,306.5 C 120.833,306.5 120.167,306.5 119.5,306.5C 119.503,245.196 120.169,245.196 121.5,306.5 Z"/></g>
<g><path style="opacity:0.2" fill="#9d9d9d" d="M 554.5,337.5 C 553.5,337.5 552.5,337.5 551.5,337.5C 551.022,306.104 551.522,274.771 553,243.5C 554.342,274.817 554.842,306.15 554.5,337.5 Z"/></g>
<g><path style="opacity:0.2" fill="#7f7f7f" d="M 337.5,261.5 C 337.5,286.833 337.5,312.167 337.5,337.5C 336.833,337.5 336.167,337.5 335.5,337.5C 335.5,317.5 335.5,297.5 335.5,277.5C 336.167,272.167 336.833,266.833 337.5,261.5 Z"/></g>
<g><path style="opacity:0.124" fill="#fdfdfd" d="M 111.5,304.5 C 114.341,304.56 117.007,305.226 119.5,306.5C 119.5,316.833 119.5,327.167 119.5,337.5C 116.833,337.5 114.167,337.5 111.5,337.5C 111.5,326.5 111.5,315.5 111.5,304.5 Z"/></g>
<g><path style="opacity:0.2" fill="#7d7d7d" d="M 119.5,306.5 C 120.167,306.5 120.833,306.5 121.5,306.5C 122.492,306.328 123.158,306.662 123.5,307.5C 121.526,317.111 120.859,327.111 121.5,337.5C 120.833,337.5 120.167,337.5 119.5,337.5C 119.5,327.167 119.5,316.833 119.5,306.5 Z"/></g>
<g><path style="opacity:0.161" fill="#fefefe" d="M 123.5,307.5 C 124.391,308.11 125.391,308.443 126.5,308.5C 126.833,308.5 127.167,308.5 127.5,308.5C 127.5,309.167 127.833,309.5 128.5,309.5C 128.5,318.833 128.5,328.167 128.5,337.5C 126.167,337.5 123.833,337.5 121.5,337.5C 120.859,327.111 121.526,317.111 123.5,307.5 Z"/></g>
</svg>
