<?xml version="1.0"?>
<svg width="147" height="147" xmlns="http://www.w3.org/2000/svg" xmlns:svg="http://www.w3.org/2000/svg" preserveAspectRatio="xMidYMid meet" version="1.0">
 <g class="layer">
  <title>Layer 1</title>
  <path d="m59.6,12.6c-23.1,5.1 -42.2,24.8 -47.2,48.5c-5.4,25.3 5.8,51.6 28,66.1c9.6,6.2 20,9.1 33.1,9.2c18.7,0.1 31.1,-5 44.5,-18.4c13.3,-13.3 18.4,-25.7 18.4,-44.5c-0.1,-9.2 -0.5,-12.4 -2.7,-19.1c-6.3,-19 -21.9,-34.6 -40.7,-40.5c-8.7,-2.8 -24.2,-3.4 -33.4,-1.3zm19,7.2c4.3,3.1 10.6,9.8 12.3,13.1c1,1.8 0.8,2.1 -1.6,2.8c-3.7,1 -27,1 -30.6,0c-2.6,-0.7 -2.7,-0.8 -1.3,-3.5c2.6,-5.1 13.7,-15.2 16.7,-15.2c0.3,0 2.4,1.3 4.5,2.8zm-29.6,19.8c0,0.4 -2,4.8 -4.3,9.8c-4.1,8.6 -11.7,19.6 -13.6,19.6c-0.4,0 -2,-2.6 -3.5,-5.9c-1.9,-4.2 -2.6,-7.5 -2.6,-11.9c0,-5.9 0.1,-6.2 3.2,-7.8c5.8,-3 10.3,-4.3 15.6,-4.3c2.8,-0.1 5.2,0.2 5.2,0.5zm68.4,2.7l5.9,2.7l-0.5,6.8c-0.5,7 -4.2,17.2 -6.2,17.2c-2.7,-0.1 -14.6,-19.4 -17.1,-27.9c-0.7,-2.3 -0.7,-2.3 5.6,-1.9c4.1,0.2 8.5,1.4 12.3,3.1zm-79.5,44.1c4.8,6.9 8.7,14.6 10.5,20.3c0.7,2.1 0.4,2.3 -3.2,2.3c-4.5,0 -13.5,-2.5 -17.4,-4.8c-2.5,-1.5 -2.8,-2.2 -2.8,-7.4c0,-7.5 4.7,-19.7 7,-18.3c0.4,0.2 3,3.8 5.9,7.9zm81.8,-2.8c1.5,3.3 2.8,8.2 3.1,12c0.6,7.7 0,8.3 -9.7,11.4c-6.9,2.2 -14.1,2.6 -14.1,0.9c0,-4 15.2,-29.9 17.6,-29.9c0.3,0 1.7,2.5 3.1,5.6zm-34.2,27.5c6.7,1.7 6.7,1.6 5.5,4c-2,3.7 -8.4,10.2 -12.8,13c-4.2,2.7 -4.5,2.7 -7.1,1.1c-7.1,-4.4 -16,-14.7 -14.2,-16.5c0.4,-0.4 4.2,-1.5 8.2,-2.2c7.4,-1.3 12.8,-1.2 20.4,0.6z" id="svg_2"/>
 </g>
</svg>