<?xml version="1.0" standalone="no"?>
<!DOCTYPE svg PUBLIC "-//W3C//DTD SVG 20010904//EN"
 "http://www.w3.org/TR/2001/REC-SVG-20010904/DTD/svg10.dtd">
<svg version="1.0" xmlns="http://www.w3.org/2000/svg"
 width="600.000000pt" height="147.000000pt" viewBox="0 0 600.000000 147.000000"
 preserveAspectRatio="xMidYMid meet">

<g transform="translate(0.000000,147.000000) scale(0.100000,-0.100000)"
fill="#000000" stroke="none">
<path d="M596 1344 c-231 -51 -422 -248 -472 -485 -54 -253 58 -516 280 -661
96 -62 200 -91 331 -92 187 -1 311 50 445 184 133 133 184 257 184 445 -1 92
-5 124 -27 191 -63 190 -219 346 -407 405 -87 28 -242 34 -334 13z m190 -72
c43 -31 106 -98 123 -131 10 -18 8 -21 -16 -28 -37 -10 -270 -10 -306 0 -26 7
-27 8 -13 35 26 51 137 152 167 152 3 0 24 -13 45 -28z m-296 -198 c0 -4 -20
-48 -43 -98 -41 -86 -117 -196 -136 -196 -4 0 -20 26 -35 59 -19 42 -26 75
-26 119 0 59 1 62 32 78 58 30 103 43 156 43 28 1 52 -2 52 -5z m684 -27 l59
-27 -5 -68 c-5 -70 -42 -172 -62 -172 -27 1 -146 194 -171 279 -7 23 -7 23 56
19 41 -2 85 -14 123 -31z m-795 -441 c48 -69 87 -146 105 -203 7 -21 4 -23
-32 -23 -45 0 -135 25 -174 48 -25 15 -28 22 -28 74 0 75 47 197 70 183 4 -2
30 -38 59 -79z m818 28 c15 -33 28 -82 31 -120 6 -77 0 -83 -97 -114 -69 -22
-141 -26 -141 -9 0 40 152 299 176 299 3 0 17 -25 31 -56z m-342 -275 c67 -17
67 -16 55 -40 -20 -37 -84 -102 -128 -130 -42 -27 -45 -27 -71 -11 -71 44
-160 147 -142 165 4 4 42 15 82 22 74 13 128 12 204 -6z"/>
<path d="M2080 910 l0 -61 -42 6 c-33 4 -50 1 -75 -14 -59 -37 -79 -173 -42
-279 19 -55 98 -80 147 -46 21 15 25 15 41 0 10 -9 35 -16 58 -16 39 0 41 1
46 37 5 25 2 42 -8 53 -11 12 -15 56 -17 196 l-3 179 -52 3 -53 3 0 -61z m-16
-156 c23 -9 23 -152 1 -160 -30 -12 -45 15 -45 80 0 35 5 67 12 74 14 14 12
14 32 6z"/>
<path d="M2427 963 c-4 -3 -7 -31 -7 -61 l0 -54 -36 7 c-87 16 -134 -47 -134
-178 0 -86 16 -136 51 -161 29 -20 87 -20 113 -1 16 12 21 12 40 0 11 -8 37
-15 57 -15 30 0 38 4 43 23 9 33 7 65 -4 69 -6 2 -10 75 -10 185 -1 152 -4
182 -16 187 -21 8 -89 8 -97 -1z m-23 -209 c23 -9 23 -152 0 -161 -8 -3 -20
-1 -26 5 -16 16 -22 102 -9 135 11 29 12 30 35 21z"/>
<path d="M2606 954 c-35 -34 -9 -94 40 -94 44 0 64 17 64 55 0 24 -6 38 -19
45 -29 15 -67 12 -85 -6z"/>
<path d="M3427 963 c-4 -3 -7 -98 -7 -210 0 -203 0 -204 25 -228 17 -18 35
-25 63 -25 40 0 40 0 47 46 5 34 3 49 -7 55 -10 6 -14 49 -16 176 -1 92 -4
174 -7 181 -5 13 -86 17 -98 5z"/>
<path d="M5218 831 c-2 -75 -1 -174 2 -219 6 -97 17 -112 87 -112 l43 0 0 48
c0 26 -4 52 -10 58 -5 5 -11 88 -12 184 l-3 175 -52 1 -52 2 -3 -137z"/>
<path d="M1615 928 c-12 -55 -75 -400 -75 -414 0 -12 11 -14 52 -12 49 3 52 5
60 36 8 30 11 32 53 32 42 0 45 -2 53 -32 8 -31 11 -33 56 -36 27 -2 52 0 57
5 4 4 -1 51 -11 103 -9 52 -28 150 -40 218 l-22 122 -89 0 c-84 0 -89 -1 -94
-22z m111 -206 l7 -62 -28 0 c-27 0 -27 1 -21 48 12 88 18 107 26 91 5 -8 12
-43 16 -77z"/>
<path d="M3750 724 l0 -225 53 3 52 3 5 78 c3 42 9 78 15 80 5 1 19 -29 30
-68 11 -38 24 -76 28 -82 8 -13 108 -19 119 -8 3 3 -7 46 -23 96 l-29 90 21
29 c29 38 36 114 15 163 -22 53 -61 67 -186 67 l-100 0 0 -226z m165 72 c0
-26 -6 -42 -18 -50 -22 -14 -37 5 -37 50 0 37 7 46 35 42 16 -2 20 -10 20 -42z"/>
<path d="M2911 844 c-24 -10 -38 -11 -45 -4 -5 5 -32 10 -58 10 l-48 0 0 -176
0 -175 53 3 52 3 3 112 c3 115 13 143 47 129 12 -4 15 -28 15 -126 l0 -121 58
3 57 3 3 130 c4 150 -7 201 -44 215 -34 13 -53 12 -93 -6z"/>
<path d="M3185 853 c-66 -17 -95 -69 -95 -173 0 -126 35 -172 133 -178 77 -5
123 21 144 83 18 50 12 168 -10 211 -25 48 -104 74 -172 57z m75 -155 c7 -73
-1 -102 -27 -106 -16 -2 -22 4 -27 29 -15 78 0 143 32 137 13 -2 18 -17 22
-60z"/>
<path d="M4171 845 c-61 -28 -83 -70 -83 -167 0 -141 82 -202 231 -172 29 6
31 9 31 50 l0 43 -64 -6 c-59 -5 -65 -4 -76 17 -6 12 -9 24 -7 27 3 3 41 6 84
6 l78 2 3 50 c4 64 -13 121 -42 140 -35 23 -115 28 -155 10z m93 -111 c9 -23
-2 -35 -29 -31 -31 4 -39 12 -32 32 8 20 53 19 61 -1z"/>
<path d="M4463 853 c-38 -8 -73 -59 -73 -107 0 -53 19 -80 81 -111 66 -34 64
-49 -6 -40 l-55 6 0 -44 c0 -38 3 -46 23 -51 40 -11 118 -6 146 9 35 17 41 32
41 96 0 57 -18 80 -86 111 -58 25 -48 42 21 33 l53 -6 4 43 c3 24 2 46 -1 50
-8 9 -120 18 -148 11z"/>
<path d="M4692 846 c-40 -19 -66 -74 -58 -121 7 -38 47 -78 99 -100 65 -27 35
-47 -40 -26 -27 8 -32 6 -37 -12 -20 -74 -5 -87 96 -87 77 0 109 26 115 96 6
60 -15 91 -82 123 -62 29 -59 45 7 37 58 -8 68 -1 68 51 0 39 -4 42 -77 48
-40 4 -68 1 -91 -9z"/>
<path d="M4993 853 c-65 -13 -110 -104 -100 -199 11 -106 61 -154 159 -154 79
0 108 13 108 47 0 44 -10 51 -74 49 -45 -1 -61 3 -69 16 -6 9 -9 19 -6 22 3 3
39 6 81 7 83 2 83 2 87 65 3 51 -20 107 -51 128 -26 17 -99 27 -135 19z m75
-125 c-2 -17 -10 -23 -28 -23 -18 0 -26 6 -28 23 -3 19 1 22 28 22 27 0 31 -3
28 -22z"/>
<path d="M5461 845 c-61 -28 -83 -70 -83 -167 0 -141 82 -202 231 -172 29 6
31 9 31 51 l0 44 -64 -7 c-58 -6 -65 -5 -75 14 -6 11 -11 23 -11 26 0 3 37 6
83 8 l82 3 3 59 c4 69 -10 108 -44 131 -36 23 -112 28 -153 10z m93 -111 c9
-22 -1 -34 -29 -34 -27 0 -39 14 -31 35 7 20 52 19 60 -1z"/>
<path d="M5835 844 c-19 -10 -31 -11 -33 -5 -2 6 -26 11 -53 11 l-49 0 0 -176
0 -175 53 3 52 3 2 95 c4 130 7 140 43 140 35 0 37 3 41 65 5 57 -7 65 -56 39z"/>
<path d="M2600 675 l0 -176 53 3 52 3 0 170 0 170 -52 3 -53 3 0 -176z"/>
</g>
</svg>
