<?xml version="1.0" ?>
<!DOCTYPE svg  PUBLIC '-//W3C//DTD SVG 1.1//EN'  'http://www.w3.org/Graphics/SVG/1.1/DTD/svg11.dtd'>
<!-- Uploaded to: SVG Repo, www.svgrepo.com, Generator: SVG Repo Mixer Tools -->
<svg width="800px" height="800px" viewBox="0 0 32 32" enable-background="new 0 0 32 32" id="Layer_1" version="1.1" xml:space="preserve" xmlns="http://www.w3.org/2000/svg" xmlns:xlink="http://www.w3.org/1999/xlink">
<g id="pricing_tags_1_">
<g>
<path d="M20.332,30.601c-0.384,0-0.769-0.146-1.061-0.438L5.643,16.533c-0.482-0.482-0.842-1.395-0.819-2.076    l0.285-8.255c0.027-0.808,0.708-1.488,1.517-1.516l1.773-0.053C8.663,4.633,8.906,4.84,8.916,5.116    c0.009,0.276-0.207,0.508-0.482,0.518L6.659,5.687c-0.284,0.01-0.541,0.267-0.551,0.55l-0.285,8.255    C5.81,14.9,6.061,15.537,6.35,15.826l13.629,13.629c0.195,0.195,0.512,0.195,0.707,0l9.192-9.193    c0.094-0.094,0.146-0.219,0.146-0.354s-0.052-0.26-0.146-0.354L16.25,5.928c-0.289-0.289-0.907-0.571-1.336-0.526l-3.938,0.136    c-0.292-0.017-0.508-0.207-0.518-0.482c-0.009-0.276,0.207-0.508,0.482-0.518l3.939-0.136c0.695,0.002,1.595,0.337,2.077,0.819    l13.628,13.627c0.282,0.282,0.438,0.659,0.438,1.061s-0.156,0.778-0.438,1.061l-9.192,9.193    C21.101,30.454,20.716,30.601,20.332,30.601z" fill="#263238"/>
<path d="M11,13.477c-1.654,0-3-1.346-3-3C8,9.412,8.554,8.449,9.48,7.9c0.236-0.14,0.544-0.062,0.686,0.176    c0.141,0.238,0.062,0.545-0.176,0.686C9.37,9.128,9,9.77,9,10.477c0,1.103,0.897,2,2,2s2-0.897,2-2    c0-0.921-0.63-1.716-1.532-1.933c-0.269-0.064-0.434-0.335-0.369-0.604c0.064-0.267,0.326-0.431,0.604-0.369    C13.055,7.896,14,9.091,14,10.477C14,12.131,12.654,13.477,11,13.477z" fill="#263238"/>
</g>
<g>
<path d="M15.771,17.064c-0.276,0.282-0.587,0.45-0.936,0.498c-0.232,0.037-0.466-0.006-0.7-0.131    c-0.126-0.066-0.253-0.164-0.381-0.29c-0.236-0.239-0.375-0.494-0.413-0.766c-0.035-0.227-0.006-0.461,0.083-0.701    c0.09-0.241,0.234-0.476,0.436-0.701l0.239,0.208c0.208,0.18,0.256,0.516,0.106,0.747c0,0-0.045,0.069-0.051,0.272    c-0.007,0.154,0.038,0.274,0.137,0.363c0.137,0.129,0.308,0.168,0.513,0.12c0.102-0.021,0.212-0.089,0.325-0.205    c0.167-0.166,0.258-0.406,0.271-0.722c-0.006-0.232-0.016-0.583-0.027-1.048c-0.007-0.395,0.024-0.712,0.096-0.948    c0.084-0.261,0.226-0.496,0.429-0.699c0.365-0.362,0.765-0.519,1.198-0.46c0.265,0.037,0.51,0.17,0.733,0.394    c0.216,0.216,0.352,0.448,0.41,0.697c0.044,0.195,0.036,0.396-0.024,0.604c-0.061,0.208-0.172,0.407-0.332,0.598l-0.273-0.189    c-0.227-0.157-0.309-0.445-0.183-0.641c0,0,0,0,0.015-0.17c0.011-0.122-0.036-0.234-0.142-0.338    c-0.11-0.112-0.244-0.147-0.397-0.105c-0.127,0.03-0.249,0.105-0.365,0.224c-0.185,0.183-0.293,0.448-0.324,0.797    c-0.013,0.133-0.009,0.307,0.013,0.524c0.022,0.258,0.033,0.434,0.032,0.525c-0.001,0.299-0.032,0.562-0.097,0.788    c-0.029,0.105-0.062,0.199-0.095,0.28C15.979,16.791,15.882,16.948,15.771,17.064z" fill="#263238"/>
<path d="M17.306,18.753c-0.174-0.174-0.498-0.184-0.721-0.022l-0.259,0.188c-0.223,0.161-0.547,0.151-0.721-0.021    c-0.173-0.173-0.131-0.444,0.094-0.604l3.876-2.751c0.225-0.159,0.567-0.13,0.762,0.064l0.125,0.124    c0.194,0.194,0.223,0.537,0.063,0.761l-2.758,3.868c-0.159,0.224-0.434,0.265-0.608,0.09s-0.186-0.499-0.022-0.721l0.188-0.258    C17.488,19.25,17.479,18.927,17.306,18.753z M19.177,16.984c0.166-0.22,0.121-0.264-0.099-0.099l-1.006,0.756    c-0.22,0.165-0.299,0.401-0.176,0.524c0.124,0.124,0.359,0.045,0.525-0.175L19.177,16.984z" fill="#263238"/>
<path d="M20.107,22.797c-0.166,0.165-0.461,0.142-0.655-0.053l-0.94-0.942c-0.194-0.194-0.194-0.513,0-0.707    l3.303-3.304c0.194-0.194,0.49-0.217,0.656-0.051c0.166,0.167,0.144,0.463-0.051,0.657l-2.702,2.701    c-0.194,0.194-0.194,0.513,0,0.707l0.337,0.337C20.249,22.337,20.272,22.632,20.107,22.797z" fill="#263238"/>
<path d="M20.747,24.038c-0.194-0.194-0.194-0.513,0-0.707l3.306-3.308c0.194-0.194,0.513-0.194,0.707,0    l1.016,1.015c0.194,0.194,0.217,0.49,0.049,0.657c-0.167,0.168-0.463,0.146-0.657-0.049l-0.41-0.409    c-0.194-0.194-0.513-0.194-0.707,0l-0.387,0.386c-0.194,0.194-0.194,0.513-0.001,0.708l0.11,0.109    c0.193,0.195,0.216,0.491,0.048,0.658c-0.167,0.167-0.463,0.145-0.657-0.05l-0.109-0.108c-0.194-0.194-0.513-0.194-0.707,0    l-0.387,0.387c-0.194,0.194-0.194,0.513,0,0.707l0.41,0.411c0.194,0.194,0.217,0.49,0.049,0.657s-0.464,0.145-0.658-0.05    L20.747,24.038z" fill="#263238"/>
</g>
<path d="M8.84,11.699c-0.215,0-0.413-0.139-0.479-0.354c-0.08-0.264,0.068-0.543,0.333-0.624   c0.501-0.152,0.937-0.411,1.294-0.768c1.502-1.503,1.149-4.299-0.786-6.234C8.251,2.767,7.066,2.167,5.867,2.032   C4.712,1.9,3.682,2.221,2.969,2.934C1.468,4.436,1.82,7.232,3.755,9.167c0.064,0.064,0.13,0.128,0.196,0.189   c0.204,0.187,0.217,0.503,0.03,0.706c-0.188,0.205-0.503,0.217-0.706,0.03c-0.078-0.071-0.153-0.145-0.228-0.219   C0.724,7.55,0.37,4.119,2.262,2.227C3.192,1.294,4.51,0.871,5.979,1.038C7.403,1.199,8.799,1.9,9.909,3.012   c2.325,2.325,2.678,5.756,0.786,7.648c-0.476,0.475-1.051,0.816-1.71,1.018C8.937,11.692,8.888,11.699,8.84,11.699z" fill="#263238"/>
</g>
</svg>